{
    "asset": {
        "copyright": "2024 (c) Adobe Inc.",
        "generator": "Adobe Substance 3D Stager - 522bab3571c29d3cf2b1b071f74e2d9861da2e41",
        "version": "2.0"
    },
    "accessors": [
        {
            "bufferView": 0,
            "componentType": 5126,
            "count": 8477,
            "type": "VEC3",
            "max": [
                0.009992930106818676,
                0.12166160345077515,
                0.02442063018679619
            ],
            "min": [
                -0.010710630565881729,
                0.12004107981920243,
                -0.018716029822826387
            ]
        },
        {
            "bufferView": 1,
            "componentType": 5126,
            "count": 8477,
            "type": "VEC3"
        },
        {
            "bufferView": 2,
            "componentType": 5126,
            "count": 8477,
            "type": "VEC4"
        },
        {
            "bufferView": 3,
            "componentType": 5126,
            "count": 8477,
            "type": "VEC2"
        },
        {
            "bufferView": 4,
            "componentType": 5125,
            "count": 48816,
            "type": "SCALAR",
            "max": [
                8476.0
            ],
            "min": [
                0.0
            ]
        },
        {
            "bufferView": 5,
            "componentType": 5126,
            "count": 35347,
            "type": "VEC3",
            "max": [
                0.033418890088796619,
                0.12396148592233658,
                0.03341877833008766
            ],
            "min": [
                -0.033418867737054828,
                0.00003724999987753108,
                -0.03341887891292572
            ]
        },
        {
            "bufferView": 6,
            "componentType": 5126,
            "count": 35347,
            "type": "VEC3"
        },
        {
            "bufferView": 7,
            "componentType": 5126,
            "count": 35347,
            "type": "VEC4"
        },
        {
            "bufferView": 8,
            "componentType": 5126,
            "count": 35347,
            "type": "VEC2"
        },
        {
            "bufferView": 9,
            "componentType": 5125,
            "count": 76800,
            "type": "SCALAR",
            "max": [
                35346.0
            ],
            "min": [
                50.0
            ]
        },
        {
            "bufferView": 10,
            "componentType": 5125,
            "count": 100992,
            "type": "SCALAR",
            "max": [
                35177.0
            ],
            "min": [
                0.0
            ]
        }
    ],
    "bufferViews": [
        {
            "buffer": 0,
            "byteOffset": 0,
            "byteLength": 101724,
            "target": 34962
        },
        {
            "buffer": 0,
            "byteOffset": 101724,
            "byteLength": 101724,
            "target": 34962
        },
        {
            "buffer": 0,
            "byteOffset": 203448,
            "byteLength": 135632,
            "target": 34962
        },
        {
            "buffer": 0,
            "byteOffset": 339080,
            "byteLength": 67816,
            "target": 34962
        },
        {
            "buffer": 0,
            "byteOffset": 406896,
            "byteLength": 195264,
            "target": 34963
        },
        {
            "buffer": 0,
            "byteOffset": 602160,
            "byteLength": 424164,
            "target": 34962
        },
        {
            "buffer": 0,
            "byteOffset": 1026324,
            "byteLength": 424164,
            "target": 34962
        },
        {
            "buffer": 0,
            "byteOffset": 1450488,
            "byteLength": 565552,
            "target": 34962
        },
        {
            "buffer": 0,
            "byteOffset": 2016040,
            "byteLength": 282776,
            "target": 34962
        },
        {
            "buffer": 0,
            "byteOffset": 2298816,
            "byteLength": 307200,
            "target": 34963
        },
        {
            "buffer": 0,
            "byteOffset": 2606016,
            "byteLength": 403968,
            "target": 34963
        }
    ],
    "buffers": [
        {
            "byteLength": 3009984,
            "uri": "passion_binary.bin"
        }
    ],
    "images": [
        {
            "name": "can_drink_ringPull_baseColor",
            "uri": "passion_images/can_drink_ringPull_baseColor.jpg",
            "mimeType": "image/jpeg"
        },
        {
            "name": "image",
            "uri": "passion_images/image.png",
            "mimeType": "image/png"
        },
        {
            "name": "can_drink_ringPull_normal",
            "uri": "passion_images/can_drink_ringPull_normal.png",
            "mimeType": "image/png"
        },
        {
            "name": "image_0",
            "uri": "passion_images/image_0.png",
            "mimeType": "image/png"
        },
        {
            "name": "can_drink_body_normal",
            "uri": "passion_images/can_drink_body_normal.png",
            "mimeType": "image/png"
        },
        {
            "name": "composited_baseColor",
            "uri": "passion_images/composited_baseColor.jpg",
            "mimeType": "image/jpeg"
        },
        {
            "name": "composited_roughness_composited_metallic",
            "uri": "passion_images/composited_roughness_composited_metallic.png",
            "mimeType": "image/png"
        }
    ],
    "materials": [
        {
            "pbrMetallicRoughness": {
                "baseColorTexture": {
                    "index": 0
                },
                "metallicRoughnessTexture": {
                    "index": 1
                }
            },
            "normalTexture": {
                "index": 2
            },
            "name": "can_drink_ringPull_Mat_material",
            "doubleSided": true,
            "extensions": {
                "KHR_materials_ior": {
                    "ior": 1.600000023841858
                }
            }
        },
        {
            "pbrMetallicRoughness": {
                "metallicRoughnessTexture": {
                    "index": 3
                }
            },
            "normalTexture": {
                "index": 4
            },
            "name": "can_drink_body_white_Mat_material",
            "doubleSided": true,
            "extensions": {
                "KHR_materials_ior": {
                    "ior": 1.600000023841858
                },
                "KHR_materials_specular": {
                    "specularFactor": 0.9399999976158142
                }
            }
        },
        {
            "pbrMetallicRoughness": {
                "baseColorTexture": {
                    "index": 5
                },
                "metallicRoughnessTexture": {
                    "index": 6
                }
            },
            "normalTexture": {
                "index": 2
            },
            "name": "can_drink_ringPull_Mat_material",
            "doubleSided": true,
            "extensions": {
                "KHR_materials_ior": {
                    "ior": 1.600000023841858
                }
            }
        }
    ],
    "meshes": [
        {
            "name": "can_drink_ringPull_n3d",
            "primitives": [
                {
                    "attributes": {
                        "TEXCOORD_0": 3,
                        "TANGENT": 2,
                        "NORMAL": 1,
                        "POSITION": 0
                    },
                    "indices": 4,
                    "material": 0
                }
            ]
        },
        {
            "name": "can_drink_body_n3d",
            "primitives": [
                {
                    "attributes": {
                        "TEXCOORD_0": 8,
                        "TANGENT": 7,
                        "NORMAL": 6,
                        "POSITION": 5
                    },
                    "indices": 9,
                    "material": 1
                },
                {
                    "attributes": {
                        "POSITION": 5,
                        "NORMAL": 6,
                        "TANGENT": 7,
                        "TEXCOORD_0": 8
                    },
                    "indices": 10,
                    "material": 2
                }
            ]
        }
    ],
    "nodes": [
        {
            "name": "working_cam_n3d"
        },
        {
            "children": [
                2,
                3
            ],
            "translation": [
                -0.00272785359993577,
                0.009134626016020775,
                -0.0011392772430554033
            ],
            "rotation": [
                0.0224775243550539,
                0.9519692659378052,
                -0.004937880672514439,
                0.305327445268631
            ],
            "scale": [
                1.0000004768371583,
                1.0000005960464478,
                1.0000001192092896
            ],
            "name": "can_drink_n3d"
        },
        {
            "mesh": 0,
            "name": "can_drink_ringPull_n3d"
        },
        {
            "mesh": 1,
            "name": "can_drink_body_n3d"
        }
    ],
    "samplers": [
        {}
    ],
    "scenes": [
        {
            "nodes": [
                1
            ],
            "name": "scene"
        }
    ],
    "textures": [
        {
            "name": "can_drink_ringPull_Mat_material::baseColor::image",
            "sampler": 0,
            "source": 0
        },
        {
            "name": "image",
            "sampler": 0,
            "source": 1
        },
        {
            "name": "can_drink_ringPull_Mat_material::normal::image",
            "sampler": 0,
            "source": 2
        },
        {
            "name": "image",
            "sampler": 0,
            "source": 3
        },
        {
            "name": "can_drink_body_white_Mat_material::normal::image",
            "sampler": 0,
            "source": 4
        },
        {
            "name": "composited_baseColor",
            "sampler": 0,
            "source": 5
        },
        {
            "name": "composited_roughness_composited_metallic",
            "sampler": 0,
            "source": 6
        }
    ],
    "scene": 0,
    "extensionsUsed": [
        "KHR_materials_ior",
        "KHR_materials_specular"
    ]
}